<svg id="Layer_1" data-name="Layer 1" xmlns="http://www.w3.org/2000/svg" viewBox="0 0 150 120"><defs><style>.cls-1{fill:#ced5db;}.cls-2{fill:#fff;}.cls-3{fill:none;stroke:#ced5db;stroke-linecap:round;stroke-linejoin:round;stroke-width:3px;}.cls-4{fill:#72a5d8;}</style></defs><rect class="cls-1" x="1" y="1" width="148" height="118" rx="2"/><path class="cls-2" d="M3,93.5H147a2,2,0,0,1,2,2V119a0,0,0,0,1,0,0H1a0,0,0,0,1,0,0V95.5A2,2,0,0,1,3,93.5Z" transform="translate(150 212.5) rotate(180)"/><line class="cls-3" x1="113" y1="107" x2="99" y2="107"/><line class="cls-3" x1="135" y1="107" x2="121" y2="107"/><line class="cls-3" x1="27" y1="107" x2="13" y2="107"/><line class="cls-3" x1="49" y1="107" x2="35" y2="107"/><path class="cls-4" d="M62.11,109h2.28v1.31h-4v-7.07H62.1Z"/><path class="cls-4" d="M70.35,103.59a3.31,3.31,0,0,1,1.28,1.29,3.88,3.88,0,0,1,0,3.74,3.47,3.47,0,0,1-1.29,1.29,3.56,3.56,0,0,1-1.8.47,3.6,3.6,0,0,1-1.81-.47,3.47,3.47,0,0,1-1.29-1.29,3.71,3.71,0,0,1-.47-1.87,3.61,3.61,0,0,1,.47-1.87,3.47,3.47,0,0,1,1.29-1.29A3.81,3.81,0,0,1,70.35,103.59Zm-3.15,1.67a2.5,2.5,0,0,0,0,3,1.74,1.74,0,0,0,1.34.55,1.7,1.7,0,0,0,1.32-.55,2.1,2.1,0,0,0,.5-1.48,2.14,2.14,0,0,0-.49-1.48,1.72,1.72,0,0,0-1.33-.55A1.74,1.74,0,0,0,67.2,105.26Z"/><path class="cls-4" d="M78.57,103.82a2.79,2.79,0,0,1,1.07,1.76H77.83a1.41,1.41,0,0,0-.55-.61,1.73,1.73,0,0,0-.89-.22,1.68,1.68,0,0,0-1.3.54,2.14,2.14,0,0,0-.49,1.48,2.19,2.19,0,0,0,.51,1.55,1.92,1.92,0,0,0,1.47.54,1.73,1.73,0,0,0,1.07-.34,1.86,1.86,0,0,0,.65-1H76.14v-1.23h3.59V108a3.67,3.67,0,0,1-.68,1.18,3.4,3.4,0,0,1-1.13.86,3.5,3.5,0,0,1-1.56.33,3.6,3.6,0,0,1-1.87-.46,3,3,0,0,1-1.24-1.27,4.28,4.28,0,0,1,0-3.74,3.16,3.16,0,0,1,1.23-1.28,3.66,3.66,0,0,1,1.86-.45A3.54,3.54,0,0,1,78.57,103.82Z"/><path class="cls-4" d="M85.86,103.59a3.31,3.31,0,0,1,1.28,1.29,4,4,0,0,1,0,3.74,3.47,3.47,0,0,1-1.29,1.29,3.68,3.68,0,0,1-3.61,0A3.47,3.47,0,0,1,81,108.62a3.72,3.72,0,0,1-.48-1.87,3.6,3.6,0,0,1,.48-1.87,3.47,3.47,0,0,1,1.29-1.29A3.81,3.81,0,0,1,85.86,103.59Zm-3.15,1.67a2.5,2.5,0,0,0,0,3,1.74,1.74,0,0,0,1.34.55,1.7,1.7,0,0,0,1.32-.55,2.1,2.1,0,0,0,.5-1.48,2.14,2.14,0,0,0-.49-1.48,1.72,1.72,0,0,0-1.33-.55A1.74,1.74,0,0,0,82.71,105.26Z"/></svg>