<svg id="Layer_1" data-name="Layer 1" xmlns="http://www.w3.org/2000/svg" viewBox="0 0 150 120"><defs><style>.cls-1{fill:#ced5db;}.cls-2{fill:#fff;}.cls-3{fill:none;stroke:#ced5db;stroke-linecap:round;stroke-linejoin:round;stroke-width:3px;}.cls-4{fill:#72a5d8;}</style></defs><rect class="cls-1" x="1" y="1" width="148" height="118" rx="2"/><path class="cls-2" d="M71.75,40.75h118a0,0,0,0,1,0,0v36.5a2,2,0,0,1-2,2h-114a2,2,0,0,1-2-2V40.75A0,0,0,0,1,71.75,40.75Z" transform="translate(70.75 190.75) rotate(-90)"/><line class="cls-3" x1="137" y1="42" x2="123" y2="42"/><line class="cls-3" x1="137" y1="51" x2="123" y2="51"/><line class="cls-3" x1="137" y1="60" x2="123" y2="60"/><path class="cls-4" d="M126.08,20h2.16v1.24h-3.79V14.54h1.62Z"/><path class="cls-4" d="M133.88,14.87a3.15,3.15,0,0,1,1.21,1.22,3.44,3.44,0,0,1,.46,1.77,3.54,3.54,0,0,1-.46,1.77,3.25,3.25,0,0,1-1.22,1.22,3.3,3.3,0,0,1-1.7.44,3.37,3.37,0,0,1-1.72-.44,3.32,3.32,0,0,1-1.22-1.22,3.52,3.52,0,0,1-.44-1.77,3.42,3.42,0,0,1,.44-1.77,3.32,3.32,0,0,1,1.22-1.22A3.6,3.6,0,0,1,133.88,14.87Zm-3,1.58a2,2,0,0,0-.46,1.41,2,2,0,0,0,.46,1.4,1.65,1.65,0,0,0,1.27.52,1.61,1.61,0,0,0,1.25-.52,2,2,0,0,0,.47-1.4,2,2,0,0,0-.46-1.4,1.81,1.81,0,0,0-2.53,0Z"/><path class="cls-4" d="M128.44,23.36a2.65,2.65,0,0,1,1,1.67h-1.72a1.27,1.27,0,0,0-.52-.58,1.55,1.55,0,0,0-.84-.21,1.57,1.57,0,0,0-1.23.51,2,2,0,0,0-.46,1.4,2,2,0,0,0,.48,1.47,1.83,1.83,0,0,0,1.39.51,1.66,1.66,0,0,0,1-.32,1.77,1.77,0,0,0,.62-.9h-2V25.74h3.4v1.58a3.53,3.53,0,0,1-.64,1.11,3.29,3.29,0,0,1-1.07.82,3.42,3.42,0,0,1-1.48.31,3.33,3.33,0,0,1-1.77-.44,2.82,2.82,0,0,1-1.17-1.2,4,4,0,0,1,0-3.54,3,3,0,0,1,1.16-1.21,3.61,3.61,0,0,1,1.76-.43A3.36,3.36,0,0,1,128.44,23.36Z"/><path class="cls-4" d="M135.34,23.14a3.15,3.15,0,0,1,1.21,1.22,3.71,3.71,0,0,1,0,3.54,3.25,3.25,0,0,1-1.22,1.22,3.46,3.46,0,0,1-3.41,0,3.25,3.25,0,0,1-1.22-1.22,3.64,3.64,0,0,1,0-3.54,3.25,3.25,0,0,1,1.22-1.22A3.58,3.58,0,0,1,135.34,23.14Zm-3,1.58a2.38,2.38,0,0,0,0,2.81,1.65,1.65,0,0,0,1.27.52,1.61,1.61,0,0,0,1.25-.52,2.34,2.34,0,0,0,0-2.8,1.61,1.61,0,0,0-1.26-.52A1.67,1.67,0,0,0,132.36,24.72Z"/><circle class="cls-4" cx="122.5" cy="106.5" r="1.5"/><circle class="cls-4" cx="130.5" cy="106.5" r="1.5"/><circle class="cls-4" cx="138.5" cy="106.5" r="1.5"/></svg>