<svg id="Layer_1" data-name="Layer 1" xmlns="http://www.w3.org/2000/svg" viewBox="0 0 150 120"><defs><style>.cls-1{fill:#ced5db;}.cls-2{fill:#fff;}.cls-3{fill:none;stroke:#72a5d8;stroke-linecap:round;stroke-linejoin:round;}.cls-4{fill:#72a5d8;}</style></defs><rect class="cls-1" x="1" y="1" width="148" height="118" rx="2"/><path class="cls-2" d="M-44.75,48.75h114a2,2,0,0,1,2,2v20.5a0,0,0,0,1,0,0h-118a0,0,0,0,1,0,0V50.75A2,2,0,0,1-44.75,48.75Z" transform="translate(-47.75 72.25) rotate(-90)"/><line class="cls-3" x1="16" y1="15.5" x2="8" y2="15.5"/><line class="cls-3" x1="16" y1="12.5" x2="8" y2="12.5"/><line class="cls-3" x1="16" y1="9.5" x2="8" y2="9.5"/><circle class="cls-4" cx="12.5" cy="106.5" r="1.5"/><circle class="cls-4" cx="12.5" cy="98.5" r="1.5"/><circle class="cls-4" cx="12.5" cy="90.5" r="1.5"/></svg>