<svg id="Layer_1" data-name="Layer 1" xmlns="http://www.w3.org/2000/svg" viewBox="0 0 150 120"><defs><style>.cls-1{fill:#ced5db;}.cls-2{fill:#fff;}.cls-3{fill:none;stroke:#ced5db;stroke-linecap:round;stroke-linejoin:round;stroke-width:3px;}.cls-4{fill:#72a5d8;}</style></defs><rect class="cls-1" x="1" y="1" width="148" height="118" rx="2"/><path class="cls-2" d="M3,1H147a2,2,0,0,1,2,2V14.5a0,0,0,0,1,0,0H1a0,0,0,0,1,0,0V3A2,2,0,0,1,3,1Z"/><line class="cls-3" x1="99" y1="8" x2="85" y2="8"/><line class="cls-3" x1="121" y1="8" x2="107" y2="8"/><line class="cls-3" x1="143" y1="8" x2="129" y2="8"/><path class="cls-4" d="M6.68,9.7H8.46v1H5.34V5.22H6.67Z"/><path class="cls-4" d="M13.1,5.49a2.6,2.6,0,0,1,1,1A2.88,2.88,0,0,1,14.47,8a2.88,2.88,0,0,1-.37,1.46,2.69,2.69,0,0,1-1,1,2.74,2.74,0,0,1-1.4.37,2.8,2.8,0,0,1-1.41-.37,2.6,2.6,0,0,1-1-1A2.88,2.88,0,0,1,8.91,8a2.79,2.79,0,0,1,.37-1.46,2.6,2.6,0,0,1,1-1A2.94,2.94,0,0,1,13.1,5.49Zm-2.45,1.3A1.63,1.63,0,0,0,10.27,8a1.61,1.61,0,0,0,.38,1.15,1.33,1.33,0,0,0,1,.43,1.3,1.3,0,0,0,1-.43A1.66,1.66,0,0,0,13.11,8a1.65,1.65,0,0,0-.38-1.15,1.33,1.33,0,0,0-1-.43A1.32,1.32,0,0,0,10.65,6.79Z"/><path class="cls-4" d="M19.51,5.67A2.15,2.15,0,0,1,20.34,7H18.93a1.11,1.11,0,0,0-.43-.48,1.29,1.29,0,0,0-.69-.17,1.31,1.31,0,0,0-1,.42A1.7,1.7,0,0,0,16.41,8a1.68,1.68,0,0,0,.4,1.2A1.53,1.53,0,0,0,18,9.6a1.37,1.37,0,0,0,.83-.27,1.53,1.53,0,0,0,.51-.74H17.61v-1h2.8v1.3a3,3,0,0,1-.53.91,2.4,2.4,0,0,1-.88.67,2.69,2.69,0,0,1-1.21.26,2.75,2.75,0,0,1-1.46-.36,2.43,2.43,0,0,1-1-1A3.05,3.05,0,0,1,15,8a3.07,3.07,0,0,1,.33-1.46,2.5,2.5,0,0,1,1-1,2.91,2.91,0,0,1,1.45-.35A2.78,2.78,0,0,1,19.51,5.67Z"/><path class="cls-4" d="M25.19,5.49a2.67,2.67,0,0,1,1,1A2.88,2.88,0,0,1,26.55,8a2.88,2.88,0,0,1-.36,1.46,2.69,2.69,0,0,1-1,1,2.87,2.87,0,0,1-2.81,0,2.69,2.69,0,0,1-1-1A2.88,2.88,0,0,1,21,8a2.88,2.88,0,0,1,.37-1.46,2.69,2.69,0,0,1,1-1A2.94,2.94,0,0,1,25.19,5.49Zm-2.46,1.3A1.68,1.68,0,0,0,22.35,8a1.7,1.7,0,0,0,.38,1.15,1.34,1.34,0,0,0,1.05.43,1.31,1.31,0,0,0,1-.43A1.66,1.66,0,0,0,25.2,8a1.66,1.66,0,0,0-.39-1.15,1.3,1.3,0,0,0-1-.43A1.34,1.34,0,0,0,22.73,6.79Z"/></svg>