<svg id="Layer_1" data-name="Layer 1" xmlns="http://www.w3.org/2000/svg" viewBox="0 0 150 120"><defs><style>.cls-1{fill:#ced5db;}.cls-2{fill:#fff;}.cls-3{fill:none;stroke:#ced5db;stroke-linecap:round;stroke-linejoin:round;stroke-width:3px;}.cls-4{fill:#72a5d8;}</style></defs><rect class="cls-1" x="1" y="1" width="148" height="118" rx="2"/><rect class="cls-2" x="9.5" y="9.5" width="131" height="23" rx="1"/><line class="cls-3" x1="87" y1="21" x2="73" y2="21"/><line class="cls-3" x1="109" y1="21" x2="95" y2="21"/><line class="cls-3" x1="131" y1="21" x2="117" y2="21"/><path class="cls-4" d="M19.05,22.73h2.28V24h-4V17H19Z"/><path class="cls-4" d="M27.29,17.32a3.37,3.37,0,0,1,1.28,1.29,3.88,3.88,0,0,1,0,3.74,3.47,3.47,0,0,1-1.29,1.29,3.56,3.56,0,0,1-1.8.47,3.6,3.6,0,0,1-1.81-.47,3.47,3.47,0,0,1-1.29-1.29,3.71,3.71,0,0,1-.47-1.87,3.61,3.61,0,0,1,.47-1.87,3.47,3.47,0,0,1,1.29-1.29A3.81,3.81,0,0,1,27.29,17.32ZM24.14,19a2.13,2.13,0,0,0-.49,1.49A2.14,2.14,0,0,0,24.14,22a1.74,1.74,0,0,0,1.34.55A1.7,1.7,0,0,0,26.8,22a2.1,2.1,0,0,0,.5-1.48A2.14,2.14,0,0,0,26.81,19a1.72,1.72,0,0,0-1.33-.55A1.74,1.74,0,0,0,24.14,19Z"/><path class="cls-4" d="M35.51,17.55a2.79,2.79,0,0,1,1.07,1.76H34.77a1.41,1.41,0,0,0-.55-.61,1.73,1.73,0,0,0-.89-.22A1.68,1.68,0,0,0,32,19a2.14,2.14,0,0,0-.49,1.48,2.19,2.19,0,0,0,.51,1.55,1.92,1.92,0,0,0,1.47.54,1.73,1.73,0,0,0,1.07-.34,1.86,1.86,0,0,0,.65-.95H33.08V20.07h3.59v1.66A3.67,3.67,0,0,1,36,22.91a3.4,3.4,0,0,1-1.13.86,3.5,3.5,0,0,1-1.56.33,3.6,3.6,0,0,1-1.87-.46,3,3,0,0,1-1.24-1.27,4.28,4.28,0,0,1,0-3.74,3.22,3.22,0,0,1,1.23-1.28,3.76,3.76,0,0,1,1.86-.45A3.54,3.54,0,0,1,35.51,17.55Z"/><path class="cls-4" d="M42.8,17.32a3.37,3.37,0,0,1,1.28,1.29,4,4,0,0,1,0,3.74,3.47,3.47,0,0,1-1.29,1.29,3.68,3.68,0,0,1-3.61,0,3.47,3.47,0,0,1-1.29-1.29,3.7,3.7,0,0,1-.48-1.87,3.62,3.62,0,0,1,.48-1.87,3.47,3.47,0,0,1,1.29-1.29A3.81,3.81,0,0,1,42.8,17.32ZM39.65,19a2.13,2.13,0,0,0-.49,1.49A2.14,2.14,0,0,0,39.65,22a1.74,1.74,0,0,0,1.34.55A1.7,1.7,0,0,0,42.31,22a2.1,2.1,0,0,0,.5-1.48A2.14,2.14,0,0,0,42.32,19,1.72,1.72,0,0,0,41,18.45,1.74,1.74,0,0,0,39.65,19Z"/></svg>