<?xml version="1.0" encoding="utf-8"?>
<!-- Generator: Adobe Illustrator 25.0.1, SVG Export Plug-In . SVG Version: 6.00 Build 0)  -->
<svg version="1.1" id="Layer_1" xmlns="http://www.w3.org/2000/svg" xmlns:xlink="http://www.w3.org/1999/xlink" x="0px" y="0px"
	 viewBox="0 0 150 120" style="enable-background:new 0 0 150 120;" xml:space="preserve">
<style type="text/css">
	.st0{fill:#CED5DB;}
	.st1{fill:#DDE3E9;}
	.st2{fill:#FFFFFF;}
	.st3{fill:none;stroke:#CED5DB;stroke-width:3;stroke-linecap:round;stroke-linejoin:round;}
	.st4{fill:#72A5D8;}
</style>
<path class="st0" d="M3,1h144c1.1,0,2,0.9,2,2v114c0,1.1-0.9,2-2,2H3c-1.1,0-2-0.9-2-2V3C1,1.9,1.9,1,3,1z"/>
<path class="st1" d="M3,1h144c1.1,0,2,0.9,2,2v23.5l0,0H1l0,0V3C1,1.9,1.9,1,3,1z"/>
<path class="st2" d="M3,1h144c1.1,0,2,0.9,2,2v23.5l0,0H1l0,0V3C1,1.9,1.9,1,3,1z"/>
<line class="st3" x1="23" y1="14" x2="12" y2="14"/>
<line class="st3" x1="43" y1="14" x2="32" y2="14"/>
<g>
	<path class="st4" d="M63.1,16h2.3v1.3h-4v-7.1h1.7L63.1,16z"/>
	<path class="st4" d="M71.4,10.6c0.5,0.3,1,0.7,1.3,1.3c0.6,1.2,0.6,2.6,0,3.7c-0.3,0.5-0.8,1-1.3,1.3c-0.5,0.3-1.2,0.5-1.8,0.5
		c-0.6,0-1.3-0.2-1.8-0.5c-0.5-0.3-1-0.8-1.3-1.3C66.1,15,66,14.4,66,13.8c0-0.7,0.1-1.3,0.5-1.9c0.3-0.5,0.8-1,1.3-1.3
		C68.9,10,70.2,10,71.4,10.6z M68.2,12.3c-0.3,0.4-0.5,0.9-0.5,1.5c0,0.5,0.1,1.1,0.5,1.5c0.3,0.4,0.8,0.6,1.3,0.6
		c0.5,0,1-0.2,1.3-0.6c0.4-0.4,0.5-0.9,0.5-1.5c0-0.5-0.1-1.1-0.5-1.5c-0.3-0.4-0.8-0.6-1.3-0.6C69,11.7,68.6,11.9,68.2,12.3z"/>
	<path class="st4" d="M79.6,10.8c0.6,0.4,1,1.1,1.1,1.8h-1.8c-0.1-0.3-0.3-0.5-0.6-0.6c-0.3-0.2-0.6-0.2-0.9-0.2
		c-0.5,0-1,0.2-1.3,0.5c-0.3,0.4-0.5,0.9-0.5,1.5c0,0.6,0.1,1.1,0.5,1.6c0.4,0.4,0.9,0.6,1.5,0.5c0.4,0,0.8-0.1,1.1-0.3
		c0.3-0.2,0.5-0.6,0.7-0.9h-2.2v-1.2h3.6V15c-0.2,0.4-0.4,0.8-0.7,1.2c-0.3,0.4-0.7,0.7-1.1,0.9c-0.5,0.2-1,0.3-1.6,0.3
		c-0.7,0-1.3-0.1-1.9-0.5c-0.5-0.3-1-0.7-1.2-1.3c-0.3-0.6-0.4-1.2-0.4-1.9c0-0.6,0.1-1.3,0.4-1.9c0.3-0.5,0.7-1,1.2-1.3
		c0.6-0.3,1.2-0.5,1.9-0.4C78.1,10.1,78.9,10.4,79.6,10.8z"/>
	<path class="st4" d="M86.9,10.6c0.5,0.3,1,0.7,1.3,1.3c0.6,1.2,0.6,2.6,0,3.7c-0.3,0.5-0.8,1-1.3,1.3c-1.1,0.6-2.5,0.6-3.6,0
		c-0.5-0.3-0.9-0.8-1.2-1.3c-0.3-0.6-0.5-1.2-0.5-1.9c0-0.7,0.2-1.3,0.5-1.9c0.3-0.5,0.8-1,1.3-1.3C84.4,10,85.7,10,86.9,10.6z
		 M83.7,12.3c-0.3,0.4-0.5,0.9-0.5,1.5c0,0.5,0.1,1.1,0.5,1.5c0.3,0.4,0.8,0.6,1.3,0.6c0.5,0,1-0.2,1.3-0.6c0.4-0.4,0.5-0.9,0.5-1.5
		c0-0.5-0.1-1.1-0.5-1.5c-0.3-0.4-0.8-0.6-1.3-0.6C84.5,11.7,84.1,11.9,83.7,12.3z"/>
</g>
<path class="st1" d="M135.7,11.5h1c1.1,0,2,0.9,2,2v1c0,1.1-0.9,2-2,2h-1c-1.1,0-2-0.9-2-2v-1C133.7,12.4,134.6,11.5,135.7,11.5z"/>
<path class="st1" d="M125.7,11.5h1c1.1,0,2,0.9,2,2v1c0,1.1-0.9,2-2,2h-1c-1.1,0-2-0.9-2-2v-1C123.7,12.4,124.6,11.5,125.7,11.5z"/>
<path class="st1" d="M115.7,11.5h1c1.1,0,2,0.9,2,2v1c0,1.1-0.9,2-2,2h-1c-1.1,0-2-0.9-2-2v-1C113.7,12.4,114.6,11.5,115.7,11.5z"/>
</svg>
