<svg id="Layer_1" data-name="Layer 1" xmlns="http://www.w3.org/2000/svg" viewBox="0 0 150 120"><defs><style>.cls-1{fill:#ced5db;}.cls-2{fill:none;stroke:#fff;stroke-linecap:round;stroke-linejoin:round;stroke-width:3px;}.cls-3{fill:#fff;}</style></defs><rect class="cls-1" x="1" y="1" width="148" height="118" rx="2"/><line class="cls-2" x1="97" y1="13" x2="83" y2="13"/><line class="cls-2" x1="119" y1="13" x2="105" y2="13"/><line class="cls-2" x1="141" y1="13" x2="127" y2="13"/><path class="cls-3" d="M10.06,16h2.28v1.31h-4V10.24h1.71Z"/><path class="cls-3" d="M18.3,10.59a3.31,3.31,0,0,1,1.28,1.29,3.6,3.6,0,0,1,.48,1.87,3.72,3.72,0,0,1-.48,1.87,3.47,3.47,0,0,1-1.29,1.29,3.56,3.56,0,0,1-1.8.47,3.6,3.6,0,0,1-1.81-.47,3.47,3.47,0,0,1-1.29-1.29,4,4,0,0,1,0-3.74,3.47,3.47,0,0,1,1.29-1.29A3.81,3.81,0,0,1,18.3,10.59Zm-3.15,1.67a2.13,2.13,0,0,0-.49,1.49,2.14,2.14,0,0,0,.49,1.48,1.74,1.74,0,0,0,1.34.55,1.7,1.7,0,0,0,1.32-.55,2.1,2.1,0,0,0,.5-1.48,2.09,2.09,0,0,0-.49-1.48,1.72,1.72,0,0,0-1.33-.55A1.74,1.74,0,0,0,15.15,12.26Z"/><path class="cls-3" d="M26.52,10.82a2.79,2.79,0,0,1,1.07,1.76H25.78a1.41,1.41,0,0,0-.55-.61,1.73,1.73,0,0,0-.89-.22,1.68,1.68,0,0,0-1.3.54,2.14,2.14,0,0,0-.49,1.48,2.19,2.19,0,0,0,.51,1.55,1.92,1.92,0,0,0,1.47.54,1.73,1.73,0,0,0,1.07-.34,1.86,1.86,0,0,0,.65-.95H24.09V13.34h3.59V15A3.67,3.67,0,0,1,27,16.18a3.4,3.4,0,0,1-1.13.86,3.5,3.5,0,0,1-1.56.33,3.6,3.6,0,0,1-1.87-.46,3,3,0,0,1-1.24-1.27,3.92,3.92,0,0,1-.43-1.87,3.92,3.92,0,0,1,.43-1.87,3.16,3.16,0,0,1,1.23-1.28,3.66,3.66,0,0,1,1.86-.45A3.54,3.54,0,0,1,26.52,10.82Z"/><path class="cls-3" d="M33.81,10.59a3.31,3.31,0,0,1,1.28,1.29,4,4,0,0,1,0,3.74,3.47,3.47,0,0,1-1.29,1.29,3.68,3.68,0,0,1-3.61,0,3.47,3.47,0,0,1-1.29-1.29,3.72,3.72,0,0,1-.48-1.87,3.6,3.6,0,0,1,.48-1.87,3.47,3.47,0,0,1,1.29-1.29A3.81,3.81,0,0,1,33.81,10.59Zm-3.15,1.67a2.13,2.13,0,0,0-.49,1.49,2.14,2.14,0,0,0,.49,1.48,1.74,1.74,0,0,0,1.34.55,1.7,1.7,0,0,0,1.32-.55,2.1,2.1,0,0,0,.5-1.48,2.09,2.09,0,0,0-.49-1.48A1.72,1.72,0,0,0,32,11.72,1.74,1.74,0,0,0,30.66,12.26Z"/></svg>