<svg id="Layer_1" data-name="Layer 1" xmlns="http://www.w3.org/2000/svg" viewBox="0 0 150 120"><defs><style>.cls-1{fill:#dde3e9;}.cls-2{fill:#fff;}</style></defs><path class="cls-1" d="M137,64H13a3,3,0,0,0-3,3V97a3,3,0,0,0,3,3H38V94a5,5,0,0,1,5-5h64a5,5,0,0,1,5,5v6h25a3,3,0,0,0,3-3V67A3,3,0,0,0,137,64Z"/><path class="cls-1" d="M107,91H43a3,3,0,0,0-3,3v14a3,3,0,0,0,3,3h64a3,3,0,0,0,3-3V94A3,3,0,0,0,107,91ZM82,105H47.5a1.5,1.5,0,0,1,0-3H82a1.5,1.5,0,0,1,0,3Zm16.19-6H47.5a1.5,1.5,0,0,1,0-3H98.19a1.5,1.5,0,0,1,0,3Z"/><path class="cls-1" d="M137,10H13a3,3,0,0,0-3,3V43a3,3,0,0,0,3,3H38V40a5,5,0,0,1,5-5h64a5,5,0,0,1,5,5v6h25a3,3,0,0,0,3-3V13A3,3,0,0,0,137,10Z"/><path class="cls-1" d="M107,37H43a3,3,0,0,0-3,3V54a3,3,0,0,0,3,3h64a3,3,0,0,0,3-3V40A3,3,0,0,0,107,37ZM82,51H47.5a1.5,1.5,0,0,1,0-3H82a1.5,1.5,0,0,1,0,3Zm16.19-6H47.5a1.5,1.5,0,0,1,0-3H98.19a1.5,1.5,0,0,1,0,3Z"/><rect class="cls-2" x="130" y="14" width="6" height="4" rx="2"/><rect class="cls-2" x="130" y="68" width="6" height="4" rx="2"/></svg>