<svg id="Isolation_Mode" data-name="Isolation Mode" xmlns="http://www.w3.org/2000/svg" viewBox="0 0 32 32"><defs><style>.cls-1{fill:#09ba98;}.cls-2{fill:#35edca;}.cls-3{fill:#9af4e3;}.cls-4{fill:#2bccad;}.cls-5{fill:#0c6856;}.cls-6{fill:#bbfff2;}</style></defs><path class="cls-1" d="M27.39,20.58a4.56,4.56,0,0,0-.75-.06,4.21,4.21,0,0,0-2.62.87,4.18,4.18,0,0,0-2.6-.86,4.1,4.1,0,0,0-2.81,1,4.3,4.3,0,0,0-5.63,0,4.1,4.1,0,0,0-2.81-1,4.31,4.31,0,0,0-2.41.72,4.28,4.28,0,0,0-2.4-.72,4.56,4.56,0,0,0-.75.06C5.17,22.21,8,29.48,8,29.48c0,.87,3.6,1.57,8,1.57s8.06-.71,8.06-1.57h0S26.83,22.19,27.39,20.58Z"/><path class="cls-2" d="M26.7,9.48a11,11,0,0,0-21.4,0,6.48,6.48,0,0,0-.36,11.3,1.58,1.58,0,0,1,1.46,0,.53.53,0,0,1,.18,0c2.91.08,5.74.32,8.64.28,3.18-.05,5.91.63,9.09-.23l.26-.05a1.43,1.43,0,0,1,.9-.29A1.38,1.38,0,0,1,26.6,21a6.49,6.49,0,0,0,.1-11.56Z"/><path class="cls-3" d="M5.07,16.32a6.47,6.47,0,0,1,3.47-5.73A10.89,10.89,0,0,1,20.71,2.21a10.91,10.91,0,0,0-16.16,7A6.46,6.46,0,0,0,5.66,21.11,15.57,15.57,0,0,0,8.5,22,6.45,6.45,0,0,1,5.07,16.32Z"/><path class="cls-4" d="M11.1,29.1s-2.38-6.25-3.17-8.43c-.14.08-.28.15-.41.24a4.2,4.2,0,0,0-2.39-.73,4.56,4.56,0,0,0-.75.06c.56,1.62,3.33,8.86,3.33,8.86,0,.86,3.58,1.56,8,1.56.58,0,1.15,0,1.7,0C13.8,30.47,11.1,29.85,11.1,29.1Z"/><path class="cls-5" d="M27.52,8.85a11.92,11.92,0,0,0-23,0,7.45,7.45,0,0,0,.21,12.9,1.51,1.51,0,0,1,0-.48,1.42,1.42,0,0,1,1.15-1,5.55,5.55,0,0,1-.14-9.91l.39-.2.1-.43a10,10,0,0,1,19.54,0l.1.43.39.2a5.54,5.54,0,0,1-.66,10.12,1.44,1.44,0,0,1,1.34,1.49,7.44,7.44,0,0,0,.58-13.08Z"/><path class="cls-5" d="M16,32c-3.23,0-8.23-.36-9-2.28-.35-.94-2.78-7.29-3.31-8.82l-.37-1.07,1.11-.18a5.36,5.36,0,0,1,3.31.5,5.44,5.44,0,0,1,5.22.24,5.3,5.3,0,0,1,5.63,0A5.49,5.49,0,0,1,24,20.24a5.49,5.49,0,0,1,3.53-.6l1.11.18-.37,1.07c-.53,1.52-3,7.88-3.31,8.81C24.28,31.66,19.24,32,16,32ZM8.84,29.17c.58.35,3.05.93,7.15.93s6.58-.58,7.16-.94v0c0-.06,1.92-5,2.88-7.62a3,3,0,0,0-1.42.62L24,22.6l-.59-.47a3.28,3.28,0,0,0-2-.66,3.21,3.21,0,0,0-2.16.8l-.65.62L18,22.27a3.33,3.33,0,0,0-4.33,0l-.65.62-.65-.62a3.21,3.21,0,0,0-2.16-.8A3.25,3.25,0,0,0,8.3,22l-.54.37L7.22,22A3.05,3.05,0,0,0,6,21.53c1,2.6,2.85,7.55,2.88,7.62Z"/><path class="cls-6" d="M22.48,11.81a.73.73,0,0,1-.42-1.32L23.74,9.3a.72.72,0,0,1,1,.17.73.73,0,0,1-.17,1L22.9,11.68A.72.72,0,0,1,22.48,11.81Z"/><path class="cls-6" d="M20.2,14.38a.74.74,0,0,1-.25-.05L18,13.61a.73.73,0,1,1,.51-1.36l1.93.72a.73.73,0,0,1-.26,1.41Z"/><path class="cls-6" d="M14.84,15.45a.73.73,0,0,1-.7-.55l-.51-2a.73.73,0,0,1,.52-.89.74.74,0,0,1,.89.52l.51,2a.73.73,0,0,1-.52.88A.63.63,0,0,1,14.84,15.45Z"/><path class="cls-6" d="M18,5.8a.68.68,0,0,1-.36-.1l-2-1.13a.73.73,0,0,1,.72-1.26l2,1.13a.72.72,0,0,1,.27,1A.71.71,0,0,1,18,5.8Z"/><path class="cls-6" d="M9.81,10.13a.74.74,0,0,1-.37-.1L7.92,9.14a.72.72,0,1,1,.73-1.25l1.53.89a.72.72,0,0,1-.37,1.35Z"/><path class="cls-6" d="M13,9.47a.72.72,0,0,1-.57-.28.73.73,0,0,1,.11-1l1.56-1.23a.73.73,0,0,1,1,.11.74.74,0,0,1-.12,1L13.49,9.31A.73.73,0,0,1,13,9.47Z"/><path class="cls-6" d="M18,10.68a.59.59,0,0,1-.23,0,.71.71,0,0,1-.46-.91l.55-1.68a.74.74,0,0,1,.92-.46.73.73,0,0,1,.46.92l-.55,1.67A.73.73,0,0,1,18,10.68Z"/><path class="cls-6" d="M8.08,14.91a.71.71,0,0,1-.41-.13L6.12,13.72a.73.73,0,1,1,.82-1.2l1.55,1.06a.72.72,0,0,1,.19,1A.71.71,0,0,1,8.08,14.91Z"/><path class="cls-6" d="M11.74,4.23a.85.85,0,1,0,.85.84A.85.85,0,0,0,11.74,4.23Z"/><path class="cls-6" d="M21.62,5.87a.84.84,0,0,0-.84.84.85.85,0,1,0,.84-.84Z"/><path class="cls-6" d="M10.84,11.17a.85.85,0,1,0,.84.84A.85.85,0,0,0,10.84,11.17Z"/><path class="cls-6" d="M25.12,12.56a.85.85,0,1,0,.84.85A.85.85,0,0,0,25.12,12.56Z"/></svg>